<?xml version="1.0" encoding="UTF-8"?><svg id="a" xmlns="http://www.w3.org/2000/svg" xmlns:xlink="http://www.w3.org/1999/xlink" viewBox="0 0 386.11 119.55"><defs><style>.k{fill:url(#j);}.l{fill:url(#g);}.m{fill:url(#h);}.n{fill:url(#i);}.o{fill:url(#f);}.p{fill:url(#d);}.q{fill:url(#e);}.r{fill:url(#c);}.s{fill:url(#b);}.t{fill:#0072bc;}</style><linearGradient id="b" x1="148.96" y1="51.3" x2="148.96" y2="61.98" gradientUnits="userSpaceOnUse"><stop offset="0" stop-color="#ffc20e"/><stop offset="1" stop-color="#f26522"/></linearGradient><linearGradient id="c" x1="137.83" y1="72.51" x2="137.83" y2="85.13" xlink:href="#b"/><linearGradient id="d" x1="66.37" y1="70.48" x2="66.37" y2="83.87" xlink:href="#b"/><linearGradient id="e" x1="74.22" y1="19.05" x2="74.22" y2="31.35" xlink:href="#b"/><linearGradient id="f" x1="141.7" y1="28.03" x2="141.7" y2="40.11" xlink:href="#b"/><linearGradient id="g" x1="124.01" y1="9.41" x2="124.01" y2="23.23" xlink:href="#b"/><linearGradient id="h" x1="62.97" y1="46.08" x2="62.97" y2="56.96" xlink:href="#b"/><linearGradient id="i" x1="97.05" y1="3.71" x2="97.05" y2="20.93" xlink:href="#b"/><linearGradient id="j" x1="104.39" y1="28.72" x2="104.39" y2="80.66" xlink:href="#b"/></defs><path class="t" d="m84.04,93.99v17.79c0,.51-.12.72-.63.72h-2.73c-.54-.03-.72-.12-.72-.72v-17.79h-4.53c-.54,0-.66-.18-.66-.66v-1.41c0-.54.21-.63.66-.63h13.17c.42,0,.66.06.66.57v1.47c0,.48-.12.66-.66.66h-4.56Z"/><path class="t" d="m99.31,102.36c0-.81,0-1.5-.39-2.13-.39-.63-1.11-1.05-1.95-1.05-1.29,0-2.25.87-2.58,1.17v11.43c0,.48-.09.72-.63.72h-2.49c-.48,0-.63-.09-.63-.69v-21.66c0-.39.12-.6.63-.6h2.49c.48,0,.63.06.63.57v8.16c.6-.54,1.92-1.71,4.29-1.71.87,0,2.49.12,3.57,1.74.81,1.2.84,2.46.84,3.3v10.17c0,.57-.09.72-.63.72h-2.43c-.63,0-.72-.06-.72-.66v-9.48Z"/><path class="t" d="m108.53,104.64c.51,4.14,2.7,4.95,4.14,4.95,1.59,0,2.79-.96,3.57-1.98.48-.69.63-.87,1.02-.87s.78.33.78.93c0,.84-1.23,5.22-5.94,5.22-3.96,0-6.72-2.88-6.72-8.19,0-5.97,3.51-8.13,6.72-8.13,4.68,0,5.79,4.2,5.79,5.64,0,1.05-.69,1.14-1.05,1.2l-8.31,1.23Zm5.61-2.79c-.12-1.92-1.29-3.03-2.61-3.03-2.07,0-3,1.89-3.15,3.96l5.76-.93Z"/><path class="t" d="m135.23,93.3c-2.76,0-5.04,2.67-5.04,7.47,0,5.85,2.94,9.12,6.45,9.12,1.89,0,3.15-.9,3.63-1.23.6-.42.75-.54,1.11-.54.51,0,.96.39.96.99,0,1.29-2.34,3.87-6.69,3.87-6.75,0-9.78-5.43-9.78-11.19s3.51-10.95,9.69-10.95c4.38,0,7.02,2.58,7.02,4.38,0,1.02-.81,1.74-1.8,1.74-.75,0-1.23-.33-1.59-.9-.87-1.32-1.8-2.76-3.96-2.76Z"/><path class="t" d="m156.41,108.78c0,1.32-.03,2.16-1.17,2.94-.84.51-2.67,1.17-5.19,1.17-5.79,0-6.15-3-6.15-4.89v-10.47c0-.48.24-.57.63-.57h2.46c.45-.03.66.09.66.6v10.05c0,.99.03,2.79,2.61,2.79,2.4,0,2.43-1.44,2.43-2.43v-10.38c0-.48.15-.63.63-.63h2.37c.48,0,.72.06.72.63v11.19Z"/><path class="t" d="m163.01,98.4c.6-.57,1.95-1.83,4.17-1.83,3.3,0,5.19,3.03,5.19,7.29,0,5.4-2.82,9.03-7.56,9.03-1.92,0-3.57-.54-4.59-1.41-.87-.78-.9-1.32-.9-3.12v-18.18c0-.48.12-.63.6-.63h2.37c.54,0,.72.06.72.63v8.22Zm0,9.12c0,.72,0,1.02.06,1.32.21,1.38,1.41,1.71,2.07,1.71,1.77,0,3.54-1.95,3.54-5.88,0-1.47-.3-5.46-3.21-5.46-1.14,0-1.98.72-2.46,1.11v7.2Z"/><path class="t" d="m185.19,109.32c-.03,1.32-.15,2.04-1.32,2.67-1.56.87-3.87.9-4.41.9-.96,0-5.82,0-5.82-4.23,0-.66.12-1.92,1.32-3.06,1.32-1.29,3.27-1.8,6.69-2.7v-1.53c0-1.11-.03-2.73-1.83-2.73-1.44,0-1.86,1.11-2.1,1.65-.27.75-.54,1.5-1.68,1.5-.9,0-1.62-.63-1.62-1.59,0-1.83,2.34-3.63,5.97-3.63,4.83,0,4.8,3.03,4.8,5.25v7.5Zm-3.54-4.68c-2.34.72-4.35,1.35-4.35,3.6,0,1.5.9,2.58,2.49,2.58,1.83,0,1.86-1.32,1.86-1.98v-4.2Z"/><path class="t" d="m204.33,100.29c1.89.99,4.86,2.52,4.86,6.51s-3,6.18-6.93,6.18c-4.86,0-6.87-3.18-6.87-4.92,0-1.32,1.05-1.83,1.77-1.83,1.2,0,1.68.93,2.13,1.74.39.81,1.23,2.43,3.24,2.43,1.62,0,2.82-1.14,2.82-2.82,0-2.13-1.56-2.94-3.96-4.2l-1.65-.84c-1.14-.63-4.08-2.22-4.08-5.85s2.7-5.85,6.42-5.85c3.96,0,6.33,2.28,6.33,3.99,0,1.02-.75,1.74-1.71,1.74-1.05,0-1.44-.66-1.83-1.32-.51-.81-1.29-2.04-2.91-2.04-1.53,0-2.61,1.17-2.61,2.67,0,1.95,1.53,2.73,3.57,3.72l1.41.69Z"/><path class="t" d="m211.61,100.47c0-1.17,0-1.62.36-2.1.6-.87,3.03-1.8,5.7-1.8.84,0,3.27.06,4.98,1.77,1.2,1.17,2.01,3.24,2.01,5.73,0,4.11-2.13,8.79-6.63,8.79-1.05,0-1.86-.21-2.73-.78v6.84c0,.48-.15.63-.6.63h-2.34c-.48,0-.75-.06-.75-.63v-18.45Zm3.69,9.3c.99.6,1.77.69,2.13.69,2.22,0,3.42-2.58,3.42-5.82,0-4.17-1.8-5.88-3.69-5.88s-1.86,1.26-1.86,2.1v8.91Z"/><path class="t" d="m229.46,104.64c.51,4.14,2.7,4.95,4.14,4.95,1.59,0,2.79-.96,3.57-1.98.48-.69.63-.87,1.02-.87s.78.33.78.93c0,.84-1.23,5.22-5.94,5.22-3.96,0-6.72-2.88-6.72-8.19,0-5.97,3.51-8.13,6.72-8.13,4.68,0,5.79,4.2,5.79,5.64,0,1.05-.69,1.14-1.05,1.2l-8.31,1.23Zm5.61-2.79c-.12-1.92-1.29-3.03-2.61-3.03-2.07,0-3,1.89-3.15,3.96l5.76-.93Z"/><path class="t" d="m246.65,98.91c-1.8,0-3.09,2.1-3.09,4.77,0,3.15,1.56,5.85,3.96,5.85,1.77,0,2.61-1.32,3.03-2.01.36-.54.54-.84.96-.84.45,0,.78.39.78,1.05,0,1.74-1.62,5.16-5.64,5.16-4.23,0-6.27-3.84-6.27-8.07s1.89-8.25,6.75-8.25c3.45,0,5.07,2.46,5.07,3.9,0,1.08-.81,1.71-1.62,1.71-.42,0-1.08-.21-1.47-1.08-.48-1.02-1.02-2.19-2.46-2.19Z"/><path class="t" d="m256.34,94.8c-1.26,0-2.04-.75-2.04-1.8s.72-1.89,2.04-1.89,1.92.84,1.95,1.8c.03,1.11-.78,1.89-1.95,1.89Zm1.89,17.04c0,.48-.06.66-.66.66h-2.61c-.48,0-.51-.15-.51-.63v-14.28c0-.42.06-.63.57-.63h2.55c.57,0,.63.15.66.66v14.22Z"/><path class="t" d="m271.79,109.32c-.03,1.32-.15,2.04-1.32,2.67-1.56.87-3.87.9-4.41.9-.96,0-5.82,0-5.82-4.23,0-.66.12-1.92,1.32-3.06,1.32-1.29,3.27-1.8,6.69-2.7v-1.53c0-1.11-.03-2.73-1.83-2.73-1.44,0-1.86,1.11-2.1,1.65-.27.75-.54,1.5-1.68,1.5-.9,0-1.62-.63-1.62-1.59,0-1.83,2.34-3.63,5.97-3.63,4.83,0,4.8,3.03,4.8,5.25v7.5Zm-3.54-4.68c-2.34.72-4.35,1.35-4.35,3.6,0,1.5.9,2.58,2.49,2.58,1.83,0,1.86-1.32,1.86-1.98v-4.2Z"/><path class="t" d="m274.58,90.12c0-.48.15-.57.69-.57h2.37c.51,0,.66.03.66.57v21.75c0,.54-.18.63-.66.63h-2.37c-.51,0-.69-.03-.69-.63v-21.75Z"/><path class="t" d="m283.09,94.8c-1.26,0-2.04-.75-2.04-1.8s.72-1.89,2.04-1.89,1.92.84,1.95,1.8c.03,1.11-.78,1.89-1.95,1.89Zm1.89,17.04c0,.48-.06.66-.66.66h-2.61c-.48,0-.51-.15-.51-.63v-14.28c0-.42.06-.63.57-.63h2.55c.57,0,.63.15.66.66v14.22Z"/><path class="t" d="m294.63,103.56c1.38.66,3.54,1.74,3.54,4.62,0,1.68-.93,4.71-5.4,4.71-4.14,0-5.58-2.43-5.58-3.63,0-.9.66-1.62,1.53-1.62s1.26.6,1.68,1.17c.72,1.02,1.26,1.8,2.46,1.8,1.08,0,1.89-.75,1.89-1.86,0-1.02-.66-1.59-.96-1.86-.42-.3-2.25-1.17-3-1.53-.9-.42-3.3-1.59-3.3-4.38,0-2.13,1.41-4.41,5.22-4.41s4.98,2.01,4.98,3.21c0,.84-.6,1.47-1.44,1.47-.93,0-1.32-.66-1.65-1.23-.3-.57-.81-1.47-2.04-1.47s-1.8,1.02-1.8,1.8c0,1.5,1.32,2.07,2.37,2.52l1.5.69Z"/><path class="t" d="m304.48,98.61v9.27c0,.87.03,2.79,2.04,2.88.75,0,1.32,0,1.32.78,0,.84-1.68,1.32-2.88,1.32-1.62,0-2.67-.6-3.27-1.32-.84-1.02-.87-2.1-.87-3.06v-9.87h-1.44c-.54,0-.54-.12-.54-1.17,0-.36.12-.48.51-.48h1.47v-1.68c0-.57.09-.72.54-1.05l2.16-1.38c.33-.21.42-.24.54-.24.39,0,.42.48.42.84v3.51h2.28c.33,0,.57,0,.57.42,0,1.11,0,1.23-.51,1.23h-2.34Z"/><path class="t" d="m38.53,45.54H14.01v31.11c0,1.96-.62,2.16-2.16,2.16H2.27c-1.44,0-2.27-.21-2.27-2.16V8.04c0-1.65.62-2.06,2.27-2.06h9.58c1.65,0,2.16.41,2.16,2.06v28.44h24.52V8.24c0-1.55.1-2.27,2.06-2.27h9.68c1.75,0,2.27.21,2.27,2.06v68.72c0,1.96-.82,2.06-2.16,2.06h-9.68c-1.75,0-2.16-.41-2.16-2.27v-31.01Z"/><path class="t" d="m160.52,1.96c0-1.65.52-1.96,2.37-1.96h8.14c1.75,0,2.27.1,2.27,1.96v74.7c0,1.85-.62,2.16-2.27,2.16h-8.14c-1.75,0-2.37-.1-2.37-2.16V1.96Z"/><path class="t" d="m218.92,67.89c-.1,4.53-.52,7.01-4.53,9.17-5.36,2.99-13.29,3.09-15.14,3.09-3.3,0-19.99,0-19.99-14.53,0-2.27.41-6.59,4.53-10.51,4.53-4.43,11.23-6.18,22.98-9.27v-5.25c0-3.81-.1-9.38-6.29-9.38-4.95,0-6.39,3.81-7.21,5.67-.93,2.58-1.85,5.15-5.77,5.15-3.09,0-5.56-2.16-5.56-5.46,0-6.28,8.04-12.47,20.5-12.47,16.59,0,16.48,10.41,16.48,18.03v25.76Zm-12.16-16.07c-8.04,2.47-14.94,4.64-14.94,12.36,0,5.15,3.09,8.86,8.55,8.86,6.29,0,6.39-4.53,6.39-6.8v-14.42Z"/><path class="t" d="m268.06,36.88c6.49,3.4,16.69,8.65,16.69,22.36s-10.3,21.22-23.8,21.22c-16.69,0-23.59-10.92-23.59-16.9,0-4.53,3.61-6.28,6.08-6.28,4.12,0,5.77,3.19,7.31,5.97,1.34,2.78,4.22,8.35,11.13,8.35,5.56,0,9.68-3.92,9.68-9.68,0-7.32-5.36-10.1-13.6-14.42l-5.67-2.88c-3.91-2.16-14.01-7.62-14.01-20.09s9.27-20.09,22.05-20.09c13.6,0,21.74,7.83,21.74,13.7,0,3.5-2.58,5.98-5.87,5.98-3.61,0-4.95-2.27-6.29-4.53-1.75-2.78-4.43-7.01-9.99-7.01-5.26,0-8.96,4.02-8.96,9.17,0,6.7,5.26,9.38,12.26,12.78l4.84,2.37Z"/><path class="t" d="m334.58,66.04c0,4.53-.1,7.42-4.02,10.1-2.88,1.75-9.17,4.02-17.82,4.02-19.88,0-21.12-10.3-21.12-16.79V27.41c0-1.65.82-1.96,2.16-1.96h8.45c1.55-.1,2.27.31,2.27,2.06v34.51c0,3.4.1,9.58,8.96,9.58,8.24,0,8.35-4.95,8.35-8.35V27.61c0-1.65.52-2.16,2.16-2.16h8.14c1.65,0,2.47.21,2.47,2.16v38.43Z"/><path class="t" d="m386.11,76.65c0,1.85-.62,2.16-2.27,2.16h-8.24c-2.06,0-2.27-.82-2.27-2.37v-34.82c0-4.12-.1-10.51-8.86-10.51-8.24,0-8.24,6.28-8.24,8.65v36.57c0,2.06-.51,2.47-2.47,2.47h-8.14c-1.65,0-2.16-.41-2.16-2.16v-40.7c0-4.12.21-6.49,4.84-8.65,5.46-2.47,11.44-3.19,17.41-3.19,10.3,0,13.91,2.58,15.66,4.02,4.64,3.81,4.74,8.65,4.74,12.26v36.27Z"/><path class="s" d="m154.29,61.98c6.52-5.66,4.21-9.13-3.35-10.42-7.55-1.3-10.87,2.55-11.11,5.84-.23,3.29,14.45,4.59,14.45,4.59Z"/><path class="r" d="m138.27,85.13c8.4-1.99,7.96-6.14,1.87-10.78-6.1-4.65-7.17.65-8.9,3.46-1.73,2.82,7.03,7.32,7.03,7.32Z"/><path class="p" d="m72.77,77.35c-1.07-8.56-5.25-8.58-10.52-3.02-5.28,5.55-.14,7.19,2.47,9.22,2.61,2.03,8.05-6.2,8.05-6.2Z"/><path class="q" d="m75.31,31.35c8.11-2.95,7.2-7.01.6-10.92-6.59-3.92-7.04,1.47-8.44,4.46-1.39,2.99,7.84,6.46,7.84,6.46Z"/><path class="o" d="m147.82,36.13c1.76-8.44-2.18-9.82-8.97-6.27-6.8,3.54-2.46,6.76-.65,9.52,1.81,2.76,9.62-3.25,9.62-3.25Z"/><path class="l" d="m117.92,17.58c3.22,8.01,7.26,6.96,10.95.24,3.69-6.71-1.7-6.99-4.74-8.29-3.05-1.29-6.21,8.05-6.21,8.05Z"/><path class="m" d="m56.21,47.93c-4.21,7.53-.87,10.02,6.68,8.68,7.55-1.34,9.38-6.08,8.47-9.26-.89-3.17-15.15.58-15.15.58Z"/><path class="n" d="m100.66,5.57c-7.51-4.24-10.01-.9-8.71,6.64,1.32,7.55,6.05,9.4,9.24,8.52,3.18-.89-.53-15.16-.53-15.16Z"/><path class="k" d="m90.25,65.46c.79,1.33,1.82,2.39,3.08,3.19,1.26.8,2.68,1.37,4.28,1.7,1.59.34,3.23.51,4.9.51s3.65-.13,5.7-.39c2.06-.27,3.96-.78,5.71-1.54,1.75-.76,3.2-1.86,4.34-3.3,1.14-1.44,1.71-3.3,1.71-5.57,0-1.97-.66-3.87-2-5.69-1.33-1.82-2.97-3.45-4.91-4.88-1.94-1.44-4.04-2.58-6.28-3.41-2.24-.83-4.24-1.25-5.99-1.25s-3.35.53-4.79,1.59c-1.45,1.06-2.68,2.37-3.71,3.92-1.03,1.56-1.83,3.24-2.39,5.06-.57,1.82-.86,3.49-.86,5,0,2.05.4,3.73,1.2,5.06Zm-11.11-15.1c1.22-3.95,3-7.54,5.36-10.76,2.35-3.23,5.29-5.85,8.83-7.86,3.53-2.01,7.62-3.02,12.25-3.02,3.19,0,6.33.97,9.41,2.91,3.08,1.94,5.83,4.35,8.26,7.23,2.43,2.89,4.4,6,5.93,9.34,1.52,3.34,2.28,6.38,2.28,9.11,0,4.48-1.08,8.22-3.25,11.22-2.17,3-4.92,5.39-8.27,7.18-3.34,1.79-7.06,3.06-11.16,3.82-4.1.76-8.09,1.14-11.97,1.14-.61,0-4.47-.03-6.36-.53-5.1-1.36-11.18-6.86-12.38-9.69-.36-.85-.54-2.43-.57-3.34-.04-.91-.07-1.83-.12-2.74-.04-.91-.06-1.67-.06-2.28,0-3.87.61-7.78,1.82-11.73Z"/></svg>